<svg xmlns="http://www.w3.org/2000/svg" xmlns:xlink="http://www.w3.org/1999/xlink" id="Слой_1" x="0" y="0" version="1.1" viewBox="0 0 36 36" xml:space="preserve" style="enable-background:new 0 0 36 36"><style type="text/css">.st0{fill:url(#SVGID_1_)}.st1{fill-rule:evenodd;clip-rule:evenodd;fill:url(#SVGID_2_)}</style><linearGradient id="SVGID_1_" x1="14.379" x2="21.621" y1="-2.535" y2="38.535" gradientUnits="userSpaceOnUse"><stop offset=".005" style="stop-color:#c52229"/><stop offset="1" style="stop-color:#802022"/></linearGradient><rect width="36" height="36" class="st0"/><linearGradient id="SVGID_2_" x1="18" x2="18" y1="6.274" y2="29.726" gradientUnits="userSpaceOnUse"><stop offset="0" style="stop-color:#fff"/><stop offset=".507" style="stop-color:#fdfdfd"/><stop offset=".77" style="stop-color:#f5f5f5"/><stop offset=".976" style="stop-color:#e8e8e8"/><stop offset="1" style="stop-color:#e6e6e6"/></linearGradient><path d="M7.3,9.8c2.8-1.1,7.4-1.3,9.4-1.2l1.3,1.6l1.3-1.6c2-0.1,6.6,0.1,9.4,1.2c-0.4,0.7-2.1,1.8-3,2	c-0.1-1.4-2.1-1.7-4-1.7L18,29.7l-3.7-19.7c-2,0-4,0.3-4,1.7C9.4,11.6,7.7,10.5,7.3,9.8L7.3,9.8z M6,7.8l0.7,1.1	c2.7-1,5.9-1.4,9.3-1.5c1.3,0,2.6,0,3.9,0c3.4,0.1,6.6,0.6,9.3,1.5L30,7.8c-3.2-1.1-6.6-1.4-10-1.5c-1.3,0-2.6,0-4,0	C12.6,6.4,9.2,6.7,6,7.8L6,7.8z" class="st1"/></svg>